<svg xmlns="http://www.w3.org/2000/svg" xmlns:xlink="http://www.w3.org/1999/xlink" width="460" height="422" viewBox="0 0 460 422"><defs><style>.a{fill:#fff;}.b{fill:none;}.c{fill:#069dfd;}.d{fill:url(#d);}.e{fill:url(#e);}.f,.g{stroke:none;}.g{fill:#069dfd;}.h{filter:url(#a);}</style><filter id="a"><feOffset input="SourceAlpha"/><feGaussianBlur stdDeviation="12" result="b"/><feFlood flood-color="#069dfd" flood-opacity="0.4" result="c"/><feComposite operator="out" in="SourceGraphic" in2="b"/><feComposite operator="in" in="c"/><feComposite operator="in" in2="SourceGraphic"/></filter><linearGradient id="d" x1="0.015" y1="0.5" x2="5.531" y2="0.5" gradientUnits="objectBoundingBox"><stop offset="0" stop-color="#069dfd"/><stop offset="0.176" stop-color="#069dfd"/><stop offset="1" stop-color="#069dfd" stop-opacity="0"/></linearGradient><linearGradient id="e" x1="0.004" y1="0.414" x2="1" y2="0.5" gradientUnits="objectBoundingBox"><stop offset="0" stop-color="#069dfd"/><stop offset="1" stop-color="#069dfd" stop-opacity="0.051"/></linearGradient></defs><g transform="translate(-360 -140)"><g data-type="innerShadowGroup"><g class="h" transform="matrix(1, 0, 0, 1, 360, 140)"><g class="a"><path class="f" d="M0,0H160l20,38H460V422H0Z"/><path class="f" d="M 2 2 L 2 420 L 458 420 L 458 40 L 178.7925415039062 40 L 158.7925720214844 2 L 2 2 M 0 0 L 160 0 L 180 38 L 460 38 L 460 422 L 0 422 L 0 0 Z"/></g></g><g class="b" transform="translate(360 140)"><path class="f" d="M0,0H160l20,38H460V422H0Z"/><path class="g" d="M 2 2 L 2 420 L 458 420 L 458 40 L 178.7925415039062 40 L 158.7925720214844 2 L 2 2 M 0 0 L 160 0 L 180 38 L 460 38 L 460 422 L 0 422 L 0 0 Z"/></g></g><path class="c" d="M184.3,636.013l-6,4.916v-160l6,4.916Z" transform="translate(181.699 -184.929)"/><path class="c" d="M804.37,636.013l6,4.916v-160l-6,4.916Z" transform="translate(8.632 -184.929)"/><g transform="translate(41 -97.838)"><path class="d" d="M557,261.838H509l4-8h48Z" transform="translate(-2)"/><path class="e" d="M-6197,102.838l4-8h6l-4,8Zm-12,0,4-8h6l-4,8Zm-12,0,4-8h6l-4,8Zm-12,0,4-8h6l-4,8Zm-12,0,4-8h6l-4,8Zm-12,0,4-8h6l-4,8Zm-12,0,4-8h6l-4,8Zm-12,0,4-8h6l-4,8Zm-12,0,4-8h6l-4,8Zm-12,0,4-8h6l-4,8Zm-12,0,4-8h6l-4,8Zm-12,0,4-8h6l-4,8Zm-12,0,4-8h6l-4,8Zm-12,0,4-8h6l-4,8Zm-12,0,4-8h6l-4,8Zm-12,0,4-8h6l-4,8Zm-12,0,4-8h6l-4,8Zm-12,0,4-8h6l-4,8Z" transform="translate(6962 159)"/></g></g></svg>