<svg xmlns="http://www.w3.org/2000/svg" xmlns:xlink="http://www.w3.org/1999/xlink" width="920" height="422" viewBox="0 0 920 422"><defs><style>.a{fill:#fff;}.b{fill:none;}.c{fill:#069dfd;}.d,.e{stroke:none;}.e{fill:#069dfd;}.f{filter:url(#a);}</style><filter id="a"><feOffset input="SourceAlpha"/><feGaussianBlur stdDeviation="12" result="b"/><feFlood flood-color="#069dfd" flood-opacity="0.4" result="c"/><feComposite operator="out" in="SourceGraphic" in2="b"/><feComposite operator="in" in="c"/><feComposite operator="in" in2="SourceGraphic"/></filter></defs><g transform="translate(-360 -140)"><g data-type="innerShadowGroup"><g class="f" transform="matrix(1, 0, 0, 1, 360, 140)"><g class="a"><path class="d" d="M0,0H920V422H0Z"/><path class="d" d="M 2 2.000030517578125 L 2 420 L 918 420 L 918 2.000030517578125 L 2 2.000030517578125 M 0 3.0517578125e-05 L 920 3.0517578125e-05 L 920 422 L 0 422 L 0 3.0517578125e-05 Z"/></g></g><g class="b" transform="translate(360 140)"><path class="d" d="M0,0H920V422H0Z"/><path class="e" d="M 2 2.000030517578125 L 2 420 L 918 420 L 918 2.000030517578125 L 2 2.000030517578125 M 0 3.0517578125e-05 L 920 3.0517578125e-05 L 920 422 L 0 422 L 0 3.0517578125e-05 Z"/></g></g><path class="c" d="M184.3,636.013l-6,4.916v-160l6,4.916Z" transform="translate(181.699 -184.929)"/><path class="c" d="M804.37,636.013l6,4.916v-160l-6,4.916Z" transform="translate(469.63 -184.929)"/></g></svg>