<svg xmlns="http://www.w3.org/2000/svg" xmlns:xlink="http://www.w3.org/1999/xlink" width="248" height="70" viewBox="0 0 248 70"><defs><style>.a{fill:#fff;}.b{fill:none;}.c,.d{fill:#12afff;}.d{opacity:0.8;}.e,.f{stroke:none;}.f{fill:#12afff;}.g{filter:url(#a);}</style><filter id="a"><feOffset input="SourceAlpha"/><feGaussianBlur stdDeviation="12" result="b"/><feFlood flood-color="#12afff" flood-opacity="0.322" result="c"/><feComposite operator="out" in="SourceGraphic" in2="b"/><feComposite operator="in" in="c"/><feComposite operator="in" in2="SourceGraphic"/></filter></defs><g transform="translate(-8 -7)"><g data-type="innerShadowGroup"><g class="g" transform="matrix(1, 0, 0, 1, 8, 7)"><g class="a"><path class="e" d="M0,18,18,0H64l6,14H176l6-14h66V52L230,70H173l-6-4H81l-6,4H0Z"/><path class="e" d="M 18.4141845703125 1 L 1 18.41418838500977 L 1 69 L 74.70172119140625 69 L 80.69703674316406 65 L 167.3027801513672 65 L 173.3027801513672 69 L 229.5858154296875 69 L 247 51.58581161499023 L 247 1 L 182.6593933105469 1 L 176.6594085693359 15 L 69.34059143066406 15 L 63.34059143066406 1 L 18.4141845703125 1 M 18 0 L 64 0 L 70 14 L 176 14 L 182 0 L 248 0 L 248 52 L 230 70 L 173 70 L 167 66 L 81 66 L 75.00468444824219 70 L 0 70 L 0 18 L 18 0 Z"/></g></g><g class="b" transform="translate(8 7)"><path class="e" d="M0,18,18,0H64l6,14H176l6-14h66V52L230,70H173l-6-4H81l-6,4H0Z"/><path class="f" d="M 18.4141845703125 1 L 1 18.41418838500977 L 1 69 L 74.70172119140625 69 L 80.69703674316406 65 L 167.3027801513672 65 L 173.3027801513672 69 L 229.5858154296875 69 L 247 51.58581161499023 L 247 1 L 182.6593933105469 1 L 176.6594085693359 15 L 69.34059143066406 15 L 63.34059143066406 1 L 18.4141845703125 1 M 18 0 L 64 0 L 70 14 L 176 14 L 182 0 L 248 0 L 248 52 L 230 70 L 173 70 L 167 66 L 81 66 L 75.00468444824219 70 L 0 70 L 0 18 L 18 0 Z"/></g></g><path class="c" d="M8,22V7H23"/><path class="c" d="M255,62V77H240" transform="translate(1)"/><path class="d" d="M86,77h92l-4-2H90Z"/></g></svg>
