<svg t="1726207002124" class="icon" viewBox="0 0 1092 1024" version="1.1" xmlns="http://www.w3.org/2000/svg" p-id="5807" width="200" height="200">
	<path d="M78.0288 1024a52.292267 52.292267 0 0 1-52.0192-52.565333V183.842133c0-29.013333 23.278933-52.497067 52.0192-52.497066h52.0192V26.282667h104.0384v104.994133h624.093867V26.282667h104.0384v104.994133h52.0192c28.672 0 52.0192 23.483733 52.0192 52.565333V971.434667c0 29.013333-23.278933 52.497067-52.0192 52.497066H78.0288zM442.368 512c56.9344 0 106.7008-29.9008 139.946667-84.241067a18.432 18.432 0 0 0-7.645867-26.350933l-41.233067-20.206933a18.6368 18.6368 0 0 0-24.302933 7.304533c-16.452267 28.125867-40.618667 44.305067-66.3552 44.305067-26.624 0-40.823467-8.669867-62.395733-27.989334-38.638933-35.293867-74.752-50.3808-120.695467-50.3808-57.002667 0-106.7008 29.969067-139.946667 84.309334a18.432 18.432 0 0 0 7.645867 26.282666l41.1648 20.206934a18.6368 18.6368 0 0 0 24.3712-7.304534c16.384-28.125867 40.618667-44.2368 66.286933-44.2368 26.760533 0 40.891733 8.6016 62.395734 27.989334 38.7072 35.293867 74.820267 50.312533 120.763733 50.312533z m142.677333 354.440533h390.144v-78.779733H585.045333v78.779733z" fill="#1989FA" p-id="5808">
	</path>
</svg>
