<svg t="1726207046500" class="icon" viewBox="0 0 1024 1024" version="1.1" xmlns="http://www.w3.org/2000/svg" p-id="6861" width="200" height="200">
	<path d="M246.782458 107.013731A365.565715 365.565715 0 0 0 138.239136 366.084112v480.508997a19.19988 19.19988 0 0 0 19.19988 19.19988h705.019594a19.19988 19.19988 0 0 0 19.19988-19.19988V366.084112a363.005731 363.005731 0 0 0-109.055319-259.070381A375.293654 375.293654 0 0 0 511.9968 0.0064a376.829645 376.829645 0 0 0-265.214342 107.007331z m234.494534 638.972007l-10.751933-242.174487H287.230205l240.638496-303.614102 20.479872 195.582777 174.078912 6.143962-243.19848 344.06185h2.047987zM19.19988 908.80072h985.59384a19.19988 19.19988 0 0 1 19.19988 19.19988v76.79952a19.19988 19.19988 0 0 1-19.19988 19.19988H19.19988a19.19988 19.19988 0 0 1-19.19988-19.19988v-76.79952a19.19988 19.19988 0 0 1 19.19988-19.19988z" fill="#1296db" p-id="6862">
	</path>
</svg>
