<svg t="1726207105117" class="icon" viewBox="0 0 1024 1024" version="1.1" xmlns="http://www.w3.org/2000/svg" p-id="7986" width="200" height="200">
	<path d="M729.6 174.592h54.272V120.32h-54.272v54.272z m-68.096-54.272c-14.848 0-27.136 12.288-27.136 27.136s12.288 27.136 27.136 27.136 27.136-12.288 27.136-27.136-12.288-27.136-27.136-27.136z m-95.232 0c-14.848 0-27.136 12.288-27.136 27.136s12.288 27.136 27.136 27.136 27.136-12.288 27.136-27.136-12.288-27.136-27.136-27.136z m258.56 122.368H199.168c-21.504 0-40.96-17.92-40.96-41.984V95.744c0-21.504 17.92-41.984 40.96-41.984h625.664c21.504 0 40.96 17.92 40.96 41.984v104.448c-0.512 25.088-19.456 42.496-40.96 42.496zM729.6 419.328h54.272V365.056h-54.272v54.272z m-68.096-54.272c-14.848 0-27.136 12.288-27.136 27.136s12.288 27.136 27.136 27.136 27.136-12.288 27.136-27.136c0-13.312-12.288-27.136-27.136-27.136z m-95.232 0c-14.848 0-27.136 12.288-27.136 27.136s12.288 27.136 27.136 27.136 27.136-12.288 27.136-27.136c1.536-13.312-12.288-27.136-27.136-27.136z m258.56 122.368H199.168c-21.504 0-40.96-17.92-40.96-41.984V340.48c0-21.504 17.92-41.984 40.96-41.984h625.664c21.504 0 40.96 17.92 40.96 41.984V445.44c-0.512 24.576-19.456 41.984-40.96 41.984zM729.6 664.064h54.272v-54.272h-54.272v54.272z m-68.096-54.272c-14.848 0-27.136 12.288-27.136 27.136s12.288 27.136 27.136 27.136 27.136-12.288 27.136-27.136-12.288-27.136-27.136-27.136z m-95.232 0c-14.848 0-27.136 12.288-27.136 27.136s12.288 27.136 27.136 27.136 27.136-12.288 27.136-27.136c1.536-14.848-12.288-27.136-27.136-27.136z m258.56 122.368H199.168c-21.504 0-40.96-17.92-40.96-41.984v-104.448c0-21.504 17.92-41.984 40.96-41.984h625.664c21.504 0 40.96 17.92 40.96 41.984v104.448c-0.512 21.504-19.456 41.984-40.96 41.984zM729.6 905.728h54.272v-54.272h-54.272v54.272z m-68.096-54.272c-14.848 0-27.136 12.288-27.136 27.136s12.288 27.136 27.136 27.136 27.136-12.288 27.136-27.136-12.288-27.136-27.136-27.136z m-95.232 0c-14.848 0-27.136 12.288-27.136 27.136s12.288 27.136 27.136 27.136 27.136-12.288 27.136-27.136c1.536-14.848-12.288-27.136-27.136-27.136z m258.56 122.368H199.168c-21.504 0-40.96-17.92-40.96-41.984v-104.448c0-21.504 17.92-41.984 40.96-41.984h625.664c21.504 0 40.96 17.92 40.96 41.984V931.84c-0.512 21.504-19.456 41.984-40.96 41.984z" p-id="7987" fill="#1296db">
	</path>
</svg>
